<?xml version="1.0" standalone="no"?>
<!DOCTYPE svg PUBLIC "-//W3C//DTD SVG 20010904//EN"
 "http://www.w3.org/TR/2001/REC-SVG-20010904/DTD/svg10.dtd">
<svg version="1.0" xmlns="http://www.w3.org/2000/svg"
 width="1280.000000pt" height="1280.000000pt" viewBox="0 0 1280.000000 1280.000000"
 preserveAspectRatio="xMidYMid meet">
<g transform="translate(0.000000,1280.000000) scale(0.100000,-0.100000)"
fill="#000000" stroke="none">
<path d="M1670 12789 c-433 -50 -829 -244 -1130 -555 -119 -123 -178 -197
-256 -322 -105 -167 -200 -396 -239 -582 -46 -213 -44 -26 -45 -4928 0 -3189
3 -4653 11 -4720 48 -445 238 -833 560 -1148 309 -301 690 -480 1119 -523 68
-7 754 -11 2031 -11 l1929 0 -2 2261 -3 2260 -674 -1 c-370 0 -707 2 -747 6
l-74 7 0 1118 0 1119 23 5 c12 3 349 4 749 3 l727 -3 4 880 c3 935 3 920 53
1140 218 950 1023 1656 1989 1745 67 6 578 10 1295 10 l1185 0 -3 -1125 -2
-1125 -1135 0 -1135 0 0 -760 0 -760 23 0 c12 0 520 0 1130 0 954 0 1108 -2
1113 -14 4 -11 -332 -2071 -362 -2218 l-5 -26 -947 -1 -947 -2 -3 -2259 -2
-2260 1554 0 c1015 0 1589 4 1656 11 575 58 1076 368 1400 864 145 222 248
520 279 807 15 138 15 9300 0 9436 -64 574 -372 1071 -862 1390 -224 146 -521
249 -809 281 -119 13 -9333 13 -9448 0z"/>
</g>
</svg>
