<?xml version="1.0" standalone="no"?>
<!DOCTYPE svg PUBLIC "-//W3C//DTD SVG 20010904//EN"
 "http://www.w3.org/TR/2001/REC-SVG-20010904/DTD/svg10.dtd">
<svg version="1.0" xmlns="http://www.w3.org/2000/svg"
 width="63.000000pt" height="59.000000pt" viewBox="0 0 63.000000 59.000000"
 preserveAspectRatio="xMidYMid meet">
<metadata>
Created by potrace 1.16, written by Peter Selinger 2001-2019
</metadata>
<g transform="translate(0.000000,59.000000) scale(0.100000,-0.100000)"
fill="#000000" stroke="none">
<path d="M225 577 c-86 -29 -153 -85 -193 -161 -21 -41 -26 -65 -26 -126 -1
-122 55 -214 159 -266 59 -28 75 -26 75 12 0 19 -5 24 -25 24 -28 0 -75 19
-75 31 0 5 -14 24 -31 44 -27 30 -29 35 -12 35 11 0 32 -13 48 -30 36 -37 89
-42 98 -9 4 13 0 22 -11 25 -62 19 -84 36 -104 81 -18 42 -19 52 -9 88 7 22
16 61 20 87 4 26 9 50 12 52 2 2 22 -2 44 -10 51 -18 188 -18 240 0 46 16 57
9 53 -39 -1 -16 4 -41 12 -55 18 -34 17 -98 -4 -137 -17 -34 -61 -63 -93 -63
-17 0 -18 -7 -15 -72 2 -40 7 -77 12 -81 11 -12 77 18 126 58 97 80 129 239
72 351 -32 60 -94 119 -157 147 -56 25 -162 32 -216 14z"/>
</g>
</svg>
