<?xml version="1.0" standalone="no"?>
<!DOCTYPE svg PUBLIC "-//W3C//DTD SVG 20010904//EN"
 "http://www.w3.org/TR/2001/REC-SVG-20010904/DTD/svg10.dtd">
<svg version="1.0" xmlns="http://www.w3.org/2000/svg"
 width="63.000000pt" height="63.000000pt" viewBox="0 0 63.000000 63.000000"
 preserveAspectRatio="xMidYMid meet">
<g transform="translate(0.000000,63.000000) scale(0.100000,-0.100000)"
fill="#000000" stroke="none">
<path d="M115 611 c-96 -45 -115 -93 -115 -299 0 -144 2 -162 23 -202 13 -26
40 -57 65 -75 l44 -30 183 0 183 0 44 30 c25 18 52 49 65 75 21 40 23 58 23
206 0 149 -2 164 -23 205 -13 24 -43 58 -66 74 l-43 30 -171 3 c-151 2 -177 0
-212 -17z m384 -59 c61 -33 71 -66 71 -237 0 -238 -17 -255 -255 -255 -238 0
-255 17 -255 255 0 238 17 255 255 255 126 0 156 -3 184 -18z"/>
<path d="M240 452 c-96 -52 -106 -201 -17 -264 41 -29 114 -35 161 -13 102 49
115 201 23 267 -42 30 -121 35 -167 10z m141 -71 c21 -22 29 -39 29 -66 0 -51
-44 -95 -95 -95 -27 0 -44 8 -66 29 -40 41 -40 91 0 132 22 21 39 29 66 29 27
0 44 -8 66 -29z"/>
</g>
</svg>
